HIERARCHY
ROOT Hips
{
	OFFSET -0.001795 -0.223333 0.028219
	CHANNELS 6 Xposition Yposition Zposition Zrotation Yrotation Xrotation 
	JOINT LeftUpLeg
	{
		OFFSET 0.069520 -0.091406 -0.006815
		CHANNELS 3 Zrotation Yrotation Xrotation
		JOINT LeftLeg
		{
			OFFSET 0.034277 -0.375199 -0.004496
			CHANNELS 3 Zrotation Yrotation Xrotation
			JOINT LeftFoot
			{
				OFFSET -0.013596 -0.397961 -0.043693
				CHANNELS 3 Zrotation Yrotation Xrotation
				JOINT LeftToe
				{
					OFFSET 0.026358 -0.055791 0.119288
					CHANNELS 3 Zrotation Yrotation Xrotation
					End Site
					{
						OFFSET 0.000000 0.000000 0.000000
					}
				}
			}
		}
	}
	JOINT RightUpLeg
	{
		OFFSET -0.067670 -0.090522 -0.004320
		CHANNELS 3 Zrotation Yrotation Xrotation
		JOINT RightLeg
		{
			OFFSET -0.038290 -0.382569 -0.008850
			CHANNELS 3 Zrotation Yrotation Xrotation
			JOINT RightFoot
			{
				OFFSET 0.015774 -0.398415 -0.042312
				CHANNELS 3 Zrotation Yrotation Xrotation
				JOINT RightToe
				{
					OFFSET -0.025372 -0.048144 0.123348
					CHANNELS 3 Zrotation Yrotation Xrotation
					End Site
					{
						OFFSET 0.000000 0.000000 0.000000
					}
				}
			}
		}
	}
	JOINT Spine
	{
		OFFSET -0.002533 0.108963 -0.026696
		CHANNELS 3 Zrotation Yrotation Xrotation
		JOINT Spine1
		{
			OFFSET 0.005487 0.135180 0.001092
			CHANNELS 3 Zrotation Yrotation Xrotation
			JOINT Spine2
			{
				OFFSET 0.001457 0.052922 0.025425
				CHANNELS 3 Zrotation Yrotation Xrotation
				JOINT Neck
				{
					OFFSET -0.002778 0.213870 -0.042857
					CHANNELS 3 Zrotation Yrotation Xrotation
					JOINT Head
					{
						OFFSET 0.005152 0.064970 0.051349
						CHANNELS 3 Zrotation Yrotation Xrotation
						End Site
						{
							OFFSET 0.000000 0.000000 0.000000
						}
					}
				}
				JOINT LeftShoulder
				{
					OFFSET 0.078845 0.121749 -0.034090
					CHANNELS 3 Zrotation Yrotation Xrotation
					JOINT LeftArm
					{
						OFFSET 0.090977 0.030469 -0.008868
						CHANNELS 3 Zrotation Yrotation Xrotation
						JOINT LeftForeArm
						{
							OFFSET 0.259612 -0.012772 -0.027456
							CHANNELS 3 Zrotation Yrotation Xrotation
							JOINT LeftHand
							{
								OFFSET 0.249234 0.008986 -0.001171
								CHANNELS 3 Zrotation Yrotation Xrotation
								End Site
								{
									OFFSET 0.000000 0.000000 0.000000
								}
							}
						}
					}
				}
				JOINT RightShoulder
				{
					OFFSET -0.081759 0.118833 -0.038615
					CHANNELS 3 Zrotation Yrotation Xrotation
					JOINT RightArm
					{
						OFFSET -0.096012 0.032551 -0.009143
						CHANNELS 3 Zrotation Yrotation Xrotation
						JOINT RightForeArm
						{
							OFFSET -0.253742 -0.013329 -0.021401
							CHANNELS 3 Zrotation Yrotation Xrotation
							JOINT RightHand
							{
								OFFSET -0.255298 0.007772 -0.005559
								CHANNELS 3 Zrotation Yrotation Xrotation
								End Site
								{
									OFFSET 0.000000 0.000000 0.000000
								}
							}
						}
					}
				}
			}
		}
	}
}
MOTION
Frames: 18
Frame Time: 0.050000
-0.022810 0.928531 -0.027271 2.063229 -8.935901 -5.331179 2.656774 0.354850 3.809988 -2.047991 0.245950 2.326076 2.614786 6.598872 4.409671 0.000000 0.000000 0.000000 -7.597027 0.240806 1.349538 2.835609 -0.048872 8.069057 -1.325542 -4.334497 1.920843 0.000000 0.000000 0.000000 7.032721 -1.170488 13.964281 -7.931821 2.520232 -22.651650 -4.842095 8.617864 25.055181 13.201661 -3.157510 -38.401831 0.000000 0.000000 0.000000 -22.934712 -14.363957 5.942867 -44.691980 -6.176355 -4.773836 -12.912072 -28.619981 4.404351 0.000000 0.000000 0.000000 30.772923 0.957730 -0.090363 53.370275 8.472810 -4.179196 13.602039 25.017467 4.121502 0.000000 0.000000 0.000000 
-0.022596 0.928581 -0.027626 2.052057 -8.750350 -5.363985 2.585913 0.340576 3.645053 -1.906304 0.220692 2.599403 2.559955 6.486986 4.357497 0.000000 0.000000 0.000000 -7.640405 0.238524 1.334394 2.937022 -0.063743 8.183872 -1.379197 -4.486407 1.977752 0.000000 0.000000 0.000000 7.035457 -1.192168 14.201790 -7.939395 2.525852 -22.665502 -4.826765 8.506226 25.135333 13.076184 -3.160561 -38.110939 0.000000 0.000000 0.000000 -23.082972 -14.542487 6.051882 -44.619169 -6.179339 -4.770154 -13.074458 -28.945739 4.499732 0.000000 0.000000 0.000000 30.890672 1.027116 -0.040986 53.063263 8.442111 -4.195381 13.832309 25.198756 4.204019 0.000000 0.000000 0.000000 
-0.022333 0.928668 -0.027740 2.112335 -8.675873 -5.350619 2.493836 0.327053 3.478218 -1.887878 0.215565 2.815855 2.540098 6.451118 4.366018 0.000000 0.000000 0.000000 -7.747653 0.244715 1.262195 2.991167 -0.070397 8.274556 -1.399715 -4.551913 2.013968 0.000000 0.000000 0.000000 7.086038 -1.206033 14.290489 -7.944119 2.533347 -22.530946 -4.966370 8.489268 25.100913 13.088258 -3.184250 -37.989072 0.000000 0.000000 0.000000 -23.076669 -14.682269 6.118694 -44.587648 -6.208401 -4.749794 -13.533935 -29.150772 4.651256 0.000000 0.000000 0.000000 30.964411 0.912208 -0.109294 52.843460 8.438676 -4.191612 13.973043 25.282828 4.251319 0.000000 0.000000 0.000000 
-0.022113 0.928375 -0.027482 2.155753 -8.508256 -5.327872 2.399353 0.321990 3.425169 -1.822107 0.203920 2.846263 2.495335 6.342596 4.237151 0.000000 0.000000 0.000000 -7.862308 0.245526 1.366318 3.096108 -0.093998 8.123753 -1.473331 -4.678876 1.933782 0.000000 0.000000 0.000000 7.212640 -1.224888 14.310420 -8.093120 2.577725 -22.532988 -5.020907 8.459355 25.318594 12.970572 -3.169334 -37.789579 0.000000 0.000000 0.000000 -23.214901 -14.810638 6.187774 -44.585034 -6.316134 -4.724809 -13.560025 -29.337249 4.690436 0.000000 0.000000 0.000000 31.145860 0.967551 -0.039353 52.668087 8.458262 -4.212494 14.206034 25.469038 4.344888 0.000000 0.000000 0.000000 
-0.021941 0.928097 -0.026995 2.276430 -8.419292 -5.435045 2.281706 0.342854 3.657592 -1.861055 0.211347 2.646745 2.453736 6.252916 4.175605 0.000000 0.000000 0.000000 -8.092477 0.251726 1.521773 3.243328 -0.118774 8.111662 -1.517773 -4.721766 1.818107 0.000000 0.000000 0.000000 7.188711 -1.219969 14.296977 -8.061738 2.575877 -22.423719 -5.077315 8.538632 25.297202 12.943724 -3.171863 -37.605407 0.000000 0.000000 0.000000 -23.163917 -14.925611 6.207060 -44.670411 -6.229931 -4.750089 -13.964610 -29.261700 4.778036 0.000000 0.000000 0.000000 31.371948 0.824605 -0.088782 52.556892 8.374732 -4.265481 14.364942 25.217516 4.336399 0.000000 0.000000 0.000000 
-0.021816 0.927701 -0.026573 2.378373 -8.146180 -5.504178 2.154304 0.368367 3.957506 -1.821598 0.208023 2.212136 2.334735 6.011506 4.085187 0.000000 0.000000 0.000000 -8.315238 0.254036 1.651425 3.444017 -0.153736 8.143188 -1.636634 -4.927256 1.682453 0.000000 0.000000 0.000000 7.194193 -1.227097 14.337027 -8.051365 2.581053 -22.370987 -5.189932 8.402536 25.259828 12.962140 -3.179903 -37.589677 0.000000 0.000000 0.000000 -23.190526 -15.076816 6.280049 -44.696425 -6.191317 -4.758042 -14.153040 -29.249189 4.822738 0.000000 0.000000 0.000000 31.625743 0.781094 -0.114668 52.461165 8.243056 -4.323835 14.351696 24.973530 4.283502 0.000000 0.000000 0.000000 
-0.021651 0.927358 -0.026397 2.449348 -7.939134 -5.534770 2.104311 0.378357 4.081302 -1.869474 0.216319 2.009242 2.247852 5.829572 3.994221 0.000000 0.000000 0.000000 -8.504613 0.258183 1.688905 3.640869 -0.186309 8.217732 -1.727756 -5.086198 1.577419 0.000000 0.000000 0.000000 7.179722 -1.229906 14.351078 -8.052904 2.585067 -22.383424 -5.207361 8.256703 25.167622 13.003255 -3.227631 -37.420914 0.000000 0.000000 0.000000 -23.256661 -15.182118 6.342128 -44.792846 -6.177980 -4.761118 -14.379732 -29.126299 4.860389 0.000000 0.000000 0.000000 31.799607 0.830188 -0.098448 52.537616 8.175081 -4.345547 14.350086 24.715151 4.228215 0.000000 0.000000 0.000000 
-0.021420 0.927237 -0.026494 2.541256 -7.783320 -5.640726 1.885614 0.399706 4.286749 -1.668150 0.188697 1.778670 2.185522 5.711273 3.986378 0.000000 0.000000 0.000000 -8.586984 0.255571 1.779960 3.594682 -0.179931 8.285914 -1.794679 -5.210945 1.514691 0.000000 0.000000 0.000000 7.077603 -1.233692 14.532774 -7.933389 2.553372 -22.448148 -5.225148 8.144873 25.042980 12.856663 -3.206577 -37.152248 0.000000 0.000000 0.000000 -23.195339 -15.290317 6.399015 -44.894591 -6.173178 -4.764429 -14.665730 -29.001412 4.911844 0.000000 0.000000 0.000000 31.901535 0.929945 -0.042219 52.644367 8.121189 -4.362846 14.253540 24.445278 4.150437 0.000000 0.000000 0.000000 
-0.021186 0.927329 -0.026716 2.600812 -7.692663 -5.664571 1.836431 0.429206 4.614532 -1.705606 0.201805 1.172260 2.100381 5.583357 4.135746 0.000000 0.000000 0.000000 -8.607712 0.254874 1.737841 3.501842 -0.163696 8.396699 -1.829075 -5.300195 1.532909 0.000000 0.000000 0.000000 7.061463 -1.235197 14.557085 -7.889557 2.542547 -22.453465 -5.300886 7.973837 24.980133 12.962745 -3.308943 -36.942695 0.000000 0.000000 0.000000 -23.084247 -15.447237 6.519029 -45.072214 -6.269860 -4.752748 -14.712120 -28.756871 4.884340 0.000000 0.000000 0.000000 32.150106 1.030789 -0.035783 52.599492 8.121271 -4.342705 14.209341 24.082910 4.059883 0.000000 0.000000 0.000000 
-0.021050 0.927367 -0.027026 2.639313 -7.791244 -5.743998 1.798434 0.461625 4.949501 -1.724727 0.211528 0.700220 2.102946 5.615946 4.261648 0.000000 0.000000 0.000000 -8.712498 0.260532 1.842979 3.584997 -0.178547 8.272334 -1.774583 -5.184316 1.555925 0.000000 0.000000 0.000000 7.006903 -1.234530 14.676363 -7.809572 2.518568 -22.472222 -5.376254 7.853036 24.768198 12.872857 -3.359502 -36.507744 0.000000 0.000000 0.000000 -22.925789 -15.513548 6.596798 -45.220189 -6.364238 -4.734178 -14.614937 -28.418314 4.804589 0.000000 0.000000 0.000000 31.941139 1.029203 -0.111637 52.980427 8.058966 -4.338419 14.395222 23.939098 4.065030 0.000000 0.000000 0.000000 
-0.021194 0.927445 -0.027603 2.595341 -7.839235 -5.924902 1.752945 0.508968 5.441502 -1.521586 0.193407 0.130877 2.085656 5.612223 4.390723 0.000000 0.000000 0.000000 -8.577547 0.246230 2.152131 3.441723 -0.162156 8.001628 -1.736955 -5.110548 1.585217 0.000000 0.000000 0.000000 6.902934 -1.231414 14.847999 -7.703279 2.488844 -22.509619 -5.383977 7.698499 24.745272 12.850743 -3.459662 -36.056648 0.000000 0.000000 0.000000 -23.075162 -15.417471 6.605378 -45.160236 -6.277924 -4.775079 -14.445360 -28.031857 4.698052 0.000000 0.000000 0.000000 31.899818 1.144533 -0.106862 53.062705 8.019337 -4.338258 14.560615 23.887875 4.081283 0.000000 0.000000 0.000000 
-0.021633 0.927441 -0.028499 2.612473 -7.797988 -6.088105 1.805566 0.529251 5.673083 -1.566862 0.202872 -0.075358 2.032520 5.534562 4.481992 0.000000 0.000000 0.000000 -8.581329 0.239924 2.280896 3.480410 -0.169070 8.004474 -1.743162 -5.118490 1.572443 0.000000 0.000000 0.000000 6.737018 -1.238386 15.224042 -7.672150 2.481170 -22.558047 -5.418139 7.380708 24.473527 12.918030 -3.617554 -35.550259 0.000000 0.000000 0.000000 -23.094029 -15.339470 6.633593 -44.977957 -6.218810 -4.779542 -14.483457 -27.495549 4.615250 0.000000 0.000000 0.000000 31.875572 1.157274 -0.226115 53.263686 8.026492 -4.284173 14.595456 23.822302 4.062232 0.000000 0.000000 0.000000 
-0.022257 0.927332 -0.029833 2.505389 -8.034637 -6.274647 1.898471 0.537848 5.760291 -1.440795 0.184604 0.069537 2.141772 5.731736 4.451426 0.000000 0.000000 0.000000 -8.399533 0.230021 2.367364 3.431749 -0.157896 8.010898 -1.659097 -4.900302 1.526657 0.000000 0.000000 0.000000 6.526473 -1.229582 15.555301 -7.570392 2.444270 -22.739006 -5.316079 7.517433 24.489914 12.925258 -3.681422 -35.258800 0.000000 0.000000 0.000000 -23.167008 -15.191374 6.553735 -44.754791 -6.056779 -4.823519 -14.489790 -27.113856 4.545304 0.000000 0.000000 0.000000 31.865278 1.038058 -0.311302 53.373396 8.097875 -4.263793 14.742617 23.967449 4.124350 0.000000 0.000000 0.000000 
-0.022758 0.927519 -0.031418 2.428879 -8.344690 -6.587515 1.957635 0.544244 5.790212 -1.328165 0.162250 0.540700 2.276936 5.992106 4.483473 0.000000 0.000000 0.000000 -8.211502 0.219392 2.433137 3.292241 -0.125553 8.230886 -1.530623 -4.619446 1.561205 0.000000 0.000000 0.000000 6.400290 -1.242807 16.161557 -7.671601 2.474061 -22.704640 -5.185446 7.535065 24.283385 12.872953 -3.757708 -34.811111 0.000000 0.000000 0.000000 -23.259297 -15.108560 6.543747 -44.309784 -6.033690 -4.784658 -14.391364 -26.639858 4.432953 0.000000 0.000000 0.000000 31.889564 1.279457 -0.216046 53.292729 8.337177 -4.123509 14.492941 24.141998 4.093511 0.000000 0.000000 0.000000 
-0.022984 0.927525 -0.033062 2.444299 -8.567437 -6.905311 2.000459 0.542556 5.733816 -1.390256 0.161839 1.122979 2.378128 6.178054 4.464977 0.000000 0.000000 0.000000 -8.213734 0.217993 2.515109 3.289330 -0.116282 8.427567 -1.438156 -4.396485 1.544910 0.000000 0.000000 0.000000 6.252369 -1.249277 16.716105 -7.678143 2.476599 -22.675222 -5.184853 7.622630 24.120318 12.868560 -3.769807 -34.740250 0.000000 0.000000 0.000000 -23.230688 -14.993546 6.471139 -44.044401 -5.772521 -4.841075 -14.643405 -26.695880 4.498907 0.000000 0.000000 0.000000 31.841969 1.320545 -0.201490 53.232298 8.597456 -3.993815 14.457592 24.225195 4.097736 0.000000 0.000000 0.000000 
-0.022943 0.927792 -0.034567 2.467404 -8.811422 -7.270532 1.953283 0.554668 5.794739 -1.339560 0.148064 1.598862 2.475453 6.377377 4.547487 0.000000 0.000000 0.000000 -8.243027 0.216582 2.714748 3.280239 -0.109182 8.500444 -1.304098 -4.135626 1.640229 0.000000 0.000000 0.000000 6.180435 -1.262202 17.283985 -7.860832 2.531367 -22.571425 -5.088930 7.658525 23.958197 12.817924 -3.817115 -34.425232 0.000000 0.000000 0.000000 -23.288000 -14.997140 6.491511 -43.800750 -5.575395 -4.880626 -14.657102 -26.797993 4.518249 0.000000 0.000000 0.000000 31.756110 1.512903 -0.107668 53.119228 8.915961 -3.829413 14.447491 24.323757 4.104860 0.000000 0.000000 0.000000 
-0.022670 0.927904 -0.035997 2.585473 -8.765661 -7.456290 1.820077 0.554946 5.750313 -1.336202 0.144068 1.822480 2.452119 6.349301 4.625364 0.000000 0.000000 0.000000 -8.405504 0.221415 2.790789 3.329612 -0.116966 8.530084 -1.294642 -4.140103 1.690087 0.000000 0.000000 0.000000 6.069479 -1.263431 17.589963 -7.922736 2.553673 -22.534160 -5.144290 7.697200 23.996489 12.667496 -3.737711 -34.413007 0.000000 0.000000 0.000000 -23.126392 -14.916852 6.410847 -43.701072 -5.533978 -4.883585 -14.722015 -27.049688 4.575523 0.000000 0.000000 0.000000 31.502211 1.633689 0.023150 53.110835 9.334081 -3.660012 14.304808 24.401456 4.092998 0.000000 0.000000 0.000000 
-0.022346 0.928098 -0.037531 2.741303 -8.596938 -7.636492 1.649079 0.557976 5.741250 -1.335027 0.141831 1.920264 2.365130 6.213802 4.757459 0.000000 0.000000 0.000000 -8.632836 0.227290 2.891506 3.426191 -0.135212 8.524924 -1.317967 -4.240520 1.779245 0.000000 0.000000 0.000000 6.029081 -1.282958 17.986511 -8.111590 2.608169 -22.645807 -5.127616 7.772365 24.107314 12.615330 -3.714657 -34.310182 0.000000 0.000000 0.000000 -23.084353 -15.111297 6.463496 -43.548940 -5.526770 -4.863713 -14.657590 -27.570534 4.644486 0.000000 0.000000 0.000000 31.482751 1.698102 0.150210 52.892789 9.673854 -3.543261 14.294274 24.382985 4.092279 0.000000 0.000000 0.000000 
